<?xml version="1.0" encoding="UTF-8" standalone="no"?>
<!-- Created with Inkscape (http://www.inkscape.org/) -->
<svg id="svg4874" xmlns:rdf="http://www.w3.org/1999/02/22-rdf-syntax-ns#" xmlns="http://www.w3.org/2000/svg" height="90" viewBox="0 0 90 90.000001" width="90" version="1.1" xmlns:cc="http://creativecommons.org/ns#" xmlns:dc="http://purl.org/dc/elements/1.1/">
 <metadata id="metadata4879">
  <rdf:RDF>
   <cc:Work rdf:about="">
    <dc:format>image/svg+xml</dc:format>
    <dc:type rdf:resource="http://purl.org/dc/dcmitype/StillImage"/>
    <dc:title/>
   </cc:Work>
  </rdf:RDF>
 </metadata>
 <g id="layer1" transform="translate(67.857 -84.505)">
  <g id="g4845" transform="matrix(0 -1 -1 0 373.51 516.51)">
   <g id="g1311" transform="matrix(0 -1 -1 0 567.36 615.36)">
    <g id="g1313" transform="matrix(1.875 0 0 1.875 -366 -1657.8)">
     <rect id="rect1315" opacity=".21171" transform="translate(0 804.36)" height="48" width="48" y="152" x="288" fill="none"/>
    </g>
    <path id="path4098" d="m21 6c-10 0-15-0.0002-15 11.627v54.746c0 11.627 5 11.627 15 11.627h48c10 0 15 0 15-11.627v-54.746c0-11.627-5-11.627-15-11.627h-48zm1.867 6h44.266c7.933 0 10.867-0.001 10.867 8.191v49.618c0 8.192-2.934 8.191-10.867 8.191h-44.266c-7.933 0-10.867 0.001-10.867-8.191v-49.618c0-8.192 2.934-8.191 10.867-8.191z" transform="translate(174 135.36)" fill="#808080"/>
    <path id="path4041-9" fill="#808080" d="m242 161.66-0.375 0.32812-26.947 23.604-15.797-13.551-4.7754 5.4004 20.576 21.648 31.301-32.938-3.9824-4.4922z"/>
   </g>
  </g>
 </g>
</svg>
