<?xml version="1.0" encoding="UTF-8" standalone="no"?>
<svg width="100px" height="100px" viewBox="0 0 100 100" version="1.1" xmlns="http://www.w3.org/2000/svg" xmlns:xlink="http://www.w3.org/1999/xlink" xmlns:sketch="http://www.bohemiancoding.com/sketch/ns">
    <!-- Generator: Sketch 3.3.3 (12072) - http://www.bohemiancoding.com/sketch -->
    <title>Placeholder Icons</title>
    <desc>Created with Sketch.</desc>
    <defs></defs>
    <g id="Page-1" stroke="none" stroke-width="1" fill="none" fill-rule="evenodd" sketch:type="MSPage">
        <g id="Placeholder-Icons" sketch:type="MSArtboardGroup">
            <g id="Timer-+-Stopwatch-+-Clock-icon" sketch:type="MSLayerGroup" transform="translate(19.000000, 17.000000)">
                <g id="Clock-icon" transform="translate(0.000000, 5.000000)" sketch:type="MSShapeGroup">
                    <path d="M19.7838596,0 C2.47304842,0 0,2.48317111 0,19.8659897 L0,37.1340103 C0,54.5167567 2.47304842,57 19.7838596,57 L41.2161404,57 C58.5269504,57 61,54.5167567 61,37.1340103 L61,19.8659897 C61,2.48317111 58.5269504,0 41.2161404,0 L19.7838596,0 L19.7838596,0 Z" id="rect4158" stroke="#5B5B5B" stroke-width="3"></path>
                    <g id="Hands" transform="translate(17.632812, 16.884454)">
                        <path d="M0.026502832,4.16418529 L12.8671875,11.6155462" id="path4219" stroke="#5B5B5B" stroke-width="3"></path>
                        <path d="M12.8671875,11.6155462 L32.7118814,0.099807479" id="path4231" stroke="#5B5B5B" stroke-width="2"></path>
                        <ellipse id="path4221" fill="#5B5B5B" cx="12.8570867" cy="10.6155882" rx="4.37271174" ry="4.39499998"></ellipse>
                        <path d="M12.5,11.1155462 L12.5,31.7331933" id="path4223" stroke="#5B5B5B"></path>
                    </g>
                </g>
            </g>
        </g>
    </g>
</svg>