<svg xmlns="http://www.w3.org/2000/svg" xmlns:xlink="http://www.w3.org/1999/xlink" xmlns:sketch="http://www.bohemiancoding.com/sketch/ns" width="100px" height="100px" viewBox="0 0 100 100" version="1.1">
    <!-- Generator: Sketch 3.3.3 (12072) - http://www.bohemiancoding.com/sketch -->
    <title>Placeholder Icons</title>
    <desc>Created with Sketch.</desc>
    <defs/>
    <g id="Page-1" stroke="none" stroke-width="1" fill="none" fill-rule="evenodd" sketch:type="MSPage">
        <g id="Placeholder-Icons" sketch:type="MSArtboardGroup">
            <g id="Timer-+-Stopwatch-+-Clock-icon" sketch:type="MSLayerGroup" transform="translate(19.000000, 17.000000)">
                <g id="Clock-icon" transform="translate(0.000000, 5.000000)" sketch:type="MSShapeGroup">
                    <path d="M19.7838596 0 C2.47304842 0 0 2.5 0 19.9 L0 37.1 C0 54.5 2.5 57 19.8 57 L41.2161404 57 C58.5269504 57 61 54.5 61 37.1 L61 19.9 C61 2.5 58.5 0 41.2 0 L19.7838596 0 L19.7838596 0 Z" id="rect4158" stroke="#5B5B5B" stroke-width="3"/>
                    <g id="Hands" transform="translate(17.632812, 16.884454)">
                        <path d="M0.026502832 4.2 L12.8671875 11.6" id="path4219" stroke="#5B5B5B" stroke-width="3"/>
                        <path d="M12.8671875 11.6 L32.7118814 0.1" id="path4231" stroke="#5B5B5B" stroke-width="2"/>
                        <ellipse id="path4221" fill="#5B5B5B" cx="12.9" cy="10.6" rx="4.4" ry="4.4"/>
                        <path d="M12.5 11.1 L12.5 31.7" id="path4223" stroke="#5B5B5B"/>
                    </g>
                </g>
            </g>
        </g>
    </g>
</svg>
